<svg width="500" height="170" viewBox="0 0 500 170" xmlns="http://www.w3.org/2000/svg" font-family="-apple-system,BlinkMacSystemFont,Segoe UI,Helvetica,Arial,sans-serif">
<text x="18" y="24" fill="#0969DA" font-size="15" font-weight="600">Most used languages</text>
<clipPath id="r"><rect x="18" y="40" width="464" height="9" rx="4.5"/></clipPath>
<g clip-path="url(#r)">
<rect x="18.00" y="40" width="242.51" height="9" fill="#F05138"/>
<rect x="260.51" y="40" width="141.73" height="9" fill="#00B4AB"/>
<rect x="402.23" y="40" width="24.59" height="9" fill="#3572A5"/>
<rect x="426.82" y="40" width="16.19" height="9" fill="#F1E05A"/>
<rect x="443.01" y="40" width="14.18" height="9" fill="#A97BFF"/>
<rect x="457.18" y="40" width="7.33" height="9" fill="#3178C6"/>
<rect x="464.51" y="40" width="4.42" height="9" fill="#E34C26"/>
<rect x="468.94" y="40" width="3.48" height="9" fill="#B07219"/>
<rect x="472.42" y="40" width="9.58" height="9" fill="#BFC6CE"/>
</g>
<circle cx="23.0" cy="74" r="5.5" fill="#F05138"/>
<text x="36.0" y="78" font-size="13" fill="#3D444D" font-weight="500">Swift <tspan fill="#656D76" font-weight="400">52.3%</tspan></text>
<circle cx="255.0" cy="74" r="5.5" fill="#00B4AB"/>
<text x="268.0" y="78" font-size="13" fill="#3D444D" font-weight="500">Dart <tspan fill="#656D76" font-weight="400">30.5%</tspan></text>
<circle cx="23.0" cy="97" r="5.5" fill="#3572A5"/>
<text x="36.0" y="101" font-size="13" fill="#3D444D" font-weight="500">Python <tspan fill="#656D76" font-weight="400">5.3%</tspan></text>
<circle cx="255.0" cy="97" r="5.5" fill="#F1E05A"/>
<text x="268.0" y="101" font-size="13" fill="#3D444D" font-weight="500">JavaScript <tspan fill="#656D76" font-weight="400">3.5%</tspan></text>
<circle cx="23.0" cy="120" r="5.5" fill="#A97BFF"/>
<text x="36.0" y="124" font-size="13" fill="#3D444D" font-weight="500">Kotlin <tspan fill="#656D76" font-weight="400">3.1%</tspan></text>
<circle cx="255.0" cy="120" r="5.5" fill="#3178C6"/>
<text x="268.0" y="124" font-size="13" fill="#3D444D" font-weight="500">TypeScript <tspan fill="#656D76" font-weight="400">1.6%</tspan></text>
<circle cx="23.0" cy="143" r="5.5" fill="#E34C26"/>
<text x="36.0" y="147" font-size="13" fill="#3D444D" font-weight="500">HTML <tspan fill="#656D76" font-weight="400">1.0%</tspan></text>
<circle cx="255.0" cy="143" r="5.5" fill="#B07219"/>
<text x="268.0" y="147" font-size="13" fill="#3D444D" font-weight="500">Java <tspan fill="#656D76" font-weight="400">0.7%</tspan></text>
<circle cx="23.0" cy="166" r="5.5" fill="#BFC6CE"/>
<text x="36.0" y="170" font-size="13" fill="#3D444D" font-weight="500">Other <tspan fill="#656D76" font-weight="400">2.1%</tspan></text>
</svg>